<svg width="26" height="21" viewBox="0 0 26 21" fill="none" xmlns="http://www.w3.org/2000/svg">
<g id="Frame 248">
<g id="Vector">
<path d="M17.0104 13.4359C21.3023 7.15337 18.5252 1.65988 11.0113 1.0484C6.2505 0.653893 3.04057 2.71518 1.62195 5.62466C0.359616 8.22839 0.984771 11.5817 3.80999 13.9093C6.71937 16.296 10.29 16.4933 13.9928 15.3788C15.0748 15.0533 16.0125 14.4221 17.0104 13.929" fill="white"/>
<path d="M17.0104 13.4359C21.3023 7.15337 18.5252 1.65988 11.0113 1.0484C6.2505 0.653893 3.04057 2.71518 1.62195 5.62466C0.359616 8.22839 0.984771 11.5817 3.80999 13.9093C6.71937 16.296 10.29 16.4933 13.9928 15.3788C15.0748 15.0533 16.0125 14.4221 17.0104 13.929" stroke="black" stroke-width="2" stroke-linecap="round" stroke-linejoin="round"/>
</g>
<g id="Vector_2">
<path d="M17.6113 14.4221C19.8114 16.227 22.0235 18.0417 24.2236 19.8466Z" fill="white"/>
<path d="M17.6113 14.4221C19.8114 16.227 22.0235 18.0417 24.2236 19.8466" stroke="black" stroke-width="2" stroke-linecap="round" stroke-linejoin="round"/>
</g>
</g>
</svg>
